# xmcd
#
# Track frame offsets:
#	150
#	13307
#	32867
#	46870
#	57835
#	77717
#	91592
#	103692
#	116775
#	139795
#
# Disc length: 2054
#
# Revision: 1
# Processed by: cddbd v1.5.1PL0 Copyright (c) Steve Scherf et al.
# Submitted via: EasyCDDAExtractor 7.1.3.1
# Normalized: r0:DSETVAR1
#
DISCID=7d08040a
DTITLE=Various Artist - Blues Legends
DYEAR=1900
DGENRE=Blues
TTITLE0=Gatemouth Brown - Depression Blues
TTITLE1=Koko Taylor - Big Boss Man
TTITLE2=Albert King - Callin' On My Darling
TTITLE3=T-Bone Walker - Call It Stormy Monday
TTITLE4=Z.Z. Hill - Love Is So Good When You Are Stealing It
TTITLE5=Willie Dixon - Walking The Blues
TTITLE6=Little Milton - We're Gonna Make It
TTITLE7=Big Joe Turner - We're Gonna Make It
TTITLE8=John Lee Hooker - Tantalizing With The Blues
TTITLE9=Muddy Waters - Muddy Waters
EXTD=
EXTT0=
EXTT1=
EXTT2=
EXTT3=
EXTT4=
EXTT5=
EXTT6=
EXTT7=
EXTT8=
EXTT9=
PLAYORDER=
